<?xml version="1.0" standalone="no"?>
<!DOCTYPE svg PUBLIC "-//W3C//DTD SVG 20010904//EN"
 "http://www.w3.org/TR/2001/REC-SVG-20010904/DTD/svg10.dtd">
<svg version="1.0" xmlns="http://www.w3.org/2000/svg"
 width="50.000000pt" height="50.000000pt" viewBox="0 0 50.000000 50.000000"
 preserveAspectRatio="xMidYMid meet">

<g transform="translate(0.000000,50.000000) scale(0.100000,-0.100000)"
fill="#FFF" stroke="none">
<path d="M40 421 c-8 -31 -7 -55 4 -105 14 -58 14 -69 0 -110 -14 -42 -14 -50
1 -96 11 -34 21 -50 30 -46 44 16 87 17 110 2 31 -21 99 -21 130 0 23 15 66
14 110 -2 8 -4 18 11 29 42 15 44 15 52 1 95 -14 42 -14 53 0 114 12 52 13 76
5 106 -6 21 -12 39 -14 39 -1 0 -36 -11 -76 -25 -88 -30 -157 -32 -225 -6 -97
36 -93 36 -105 -8z m102 -54 c39 -32 46 -42 38 -57 -10 -18 -59 -40 -89 -40
-20 0 -45 100 -35 138 7 25 2 27 86 -41z m303 -7 c-3 -14 -10 -42 -16 -62 l-9
-37 -45 16 c-75 25 -75 43 -2 101 59 48 62 49 70 29 4 -12 5 -33 2 -47z m-195
35 c41 0 86 4 100 8 20 6 15 0 -20 -32 -45 -40 -45 -40 -28 -68 11 -18 33 -33
65 -44 31 -10 52 -24 60 -40 23 -43 17 -49 -47 -49 l-61 0 6 -34 c6 -28 3 -36
-16 -50 -30 -21 -88 -21 -118 0 -19 14 -22 22 -16 50 l6 34 -62 0 -61 0 7 27
c10 40 20 49 69 63 28 7 52 23 66 41 l21 30 -23 18 c-13 10 -34 28 -48 40
l-25 22 25 -8 c14 -4 59 -8 100 -8z m-98 -270 c-3 -19 -12 -26 -39 -31 -37 -7
-53 4 -53 39 0 14 9 17 49 17 46 0 48 -1 43 -25z m288 8 c0 -35 -16 -46 -53
-39 -27 5 -36 12 -39 31 -5 24 -3 25 43 25 40 0 49 -3 49 -17z"/>
<path d="M185 210 c-3 -5 1 -13 10 -16 22 -9 29 1 11 15 -10 8 -16 9 -21 1z"/>
<path d="M290 205 c-10 -12 -10 -15 3 -15 19 0 31 16 18 24 -5 3 -14 -1 -21
-9z"/>
<path d="M220 120 c0 -16 7 -20 30 -20 23 0 30 4 30 20 0 16 -7 20 -30 20 -23
0 -30 -4 -30 -20z"/>
</g>
</svg>
